HIERARCHY
ROOT Hips
{
	OFFSET 0.000000 0.000000 0.000000
	CHANNELS 6 Xposition Yposition Zposition Zrotation Yrotation Xrotation 
	JOINT LowerBack
	{
		OFFSET 0.000000 0.000000 0.000000
		CHANNELS 3 Zrotation Yrotation Xrotation
		JOINT Spine
		{
			OFFSET 0.028270 2.035590 -0.193380
			CHANNELS 3 Zrotation Yrotation Xrotation
			JOINT Spine1
			{
				OFFSET 0.056720 2.048850 -0.042750
				CHANNELS 3 Zrotation Yrotation Xrotation
				JOINT Neck
				{
					OFFSET 0.000000 0.000000 0.000000
					CHANNELS 3 Zrotation Yrotation Xrotation
					JOINT Neck1
					{
						OFFSET -0.054170 1.746240 0.172020
						CHANNELS 3 Zrotation Yrotation Xrotation
						JOINT Head
						{
							OFFSET 0.104070 1.761360 -0.123970
							CHANNELS 3 Zrotation Yrotation Xrotation
							End Site
							{
								OFFSET 0.000000 0.000000 0.000000
							}
						}
					}
				}
				JOINT LeftShoulder
				{
					OFFSET 0.000000 0.000000 0.000000
					CHANNELS 3 Zrotation Yrotation Xrotation
					JOINT LeftArm
					{
						OFFSET 3.362410 1.200890 -0.311210
						CHANNELS 3 Zrotation Yrotation Xrotation
						JOINT LeftForeArm
						{
							OFFSET 4.983000 -0.000000 -0.000000
							CHANNELS 3 Zrotation Yrotation Xrotation
							JOINT LeftHand
							{
								OFFSET 3.483560 -0.000000 -0.000000
								CHANNELS 3 Zrotation Yrotation Xrotation
								JOINT LeftFingerBase
								{
									OFFSET 0.000000 0.000000 0.000000
									CHANNELS 3 Zrotation Yrotation Xrotation
									JOINT LeftHandIndex1
									{
										OFFSET 0.715260 -0.000000 -0.000000
										CHANNELS 3 Zrotation Yrotation Xrotation
										End Site
										{
											OFFSET 0.000000 0.000000 0.000000
										}
									}
								}
								JOINT LThumb
								{
									OFFSET 0.000000 0.000000 0.000000
									CHANNELS 3 Zrotation Yrotation Xrotation
									End Site
									{
										OFFSET 0.000000 0.000000 0.000000
									}
								}
							}
						}
					}
				}
				JOINT RightShoulder
				{
					OFFSET 0.000000 0.000000 0.000000
					CHANNELS 3 Zrotation Yrotation Xrotation
					JOINT RightArm
					{
						OFFSET -3.136600 1.374050 -0.404650
						CHANNELS 3 Zrotation Yrotation Xrotation
						JOINT RightForeArm
						{
							OFFSET -5.241900 -0.000000 -0.000000
							CHANNELS 3 Zrotation Yrotation Xrotation
							JOINT RightHand
							{
								OFFSET -3.444170 -0.000000 -0.000000
								CHANNELS 3 Zrotation Yrotation Xrotation
								JOINT RightFingerBase
								{
									OFFSET 0.000000 0.000000 0.000000
									CHANNELS 3 Zrotation Yrotation Xrotation
									JOINT RightHandIndex1
									{
										OFFSET -0.622530 -0.000000 -0.000000
										CHANNELS 3 Zrotation Yrotation Xrotation
										End Site
										{
											OFFSET 0.000000 0.000000 0.000000
										}
									}
								}
								JOINT RThumb
								{
									OFFSET 0.000000 0.000000 0.000000
									CHANNELS 3 Zrotation Yrotation Xrotation
									End Site
									{
										OFFSET 0.000000 0.000000 0.000000
									}
								}
							}
						}
					}
				}
			}
		}
	}
}
}
MOTION
Frames: 13
Frame Time: 0.008333
4.994831 17.299450 0.909145 -176.477336 -64.901266 -174.403810 3.924760 1.344468 -8.744526 0.046973 0.748552 -5.620954 -5.066801 0.780032 -5.957929 6.083393 2.708099 7.501237 -1.957905 -0.361338 4.204146 0.000000 0.000000 0.000000 10.193841 7.604222 -6.479400 -36.079088 -70.785313 -35.934476 175.054169 -58.931363 179.558289 23.398192 -19.071104 -4.344192 -0.257749 1.413274 -0.000000 0.000000 0.000000 0.000000 0.000000 0.000000 0.000000 0.260898 0.525609 -8.669482 79.099515 64.332103 2.916795 -175.091082 58.462667 179.675764 -12.261903 25.350098 -2.905236 -0.149558 -1.355569 0.000000 0.000000 0.000000 0.000000 0.000000 0.000000 0.000000 
4.989435 17.300316 0.910391 -176.544875 -64.197394 -174.122710 3.987734 1.357481 -8.797199 0.070125 0.753172 -5.657803 -5.032580 0.779578 -6.070072 6.113992 2.757474 7.473010 -1.933105 -0.360053 4.199951 0.000000 0.000000 0.000000 10.334438 7.527303 -6.533287 -34.500016 -70.548115 -37.583511 175.083672 -59.638809 179.553296 23.863108 -19.391844 -4.503729 -0.263955 1.412238 -0.000000 0.000000 0.000000 0.000000 0.000000 0.000000 0.000000 0.254215 0.690858 -8.636763 79.454223 64.368389 3.211287 -175.098778 58.602284 179.675058 -12.286009 25.341952 -2.909939 -0.150209 -1.355175 0.000000 0.000000 0.000000 0.000000 0.000000 0.000000 0.000000 
4.985531 17.300802 0.912095 -176.612230 -63.482583 -173.837395 4.037951 1.348378 -8.832181 0.093463 0.736730 -5.696006 -4.996774 0.757458 -6.202600 6.155950 2.808115 7.441717 -1.905654 -0.358616 4.195459 0.000000 0.000000 0.000000 10.501060 7.389938 -6.593176 -32.671605 -70.222506 -39.487849 175.139491 -60.521090 179.548040 24.365087 -19.868440 -4.709379 -0.269501 1.412949 -0.000000 0.000000 0.000000 0.000000 0.000000 0.000000 0.000000 0.260257 0.876365 -8.591364 79.820239 64.417506 3.516489 -175.110032 58.759670 179.674475 -12.304525 25.320637 -2.911639 -0.150995 -1.354447 0.000000 0.000000 0.000000 0.000000 0.000000 0.000000 0.000000 
4.983035 17.300919 0.913822 -176.685739 -62.763408 -173.529396 4.066177 1.314231 -8.865644 0.115410 0.696421 -5.738361 -4.959949 0.710401 -6.353831 6.215118 2.859495 7.407604 -1.875265 -0.357015 4.190855 0.000000 0.000000 0.000000 10.723216 7.181502 -6.657920 -30.647152 -69.781030 -41.638640 175.225799 -61.585291 179.542720 24.898603 -20.520046 -4.967136 -0.274042 1.415489 -0.000000 0.000000 0.000000 0.000000 0.000000 0.000000 0.000000 0.282028 1.082808 -8.532795 80.195787 64.472529 3.828488 -175.125267 58.931364 179.674057 -12.313229 25.288937 -2.909836 -0.151998 -1.353497 0.000000 0.000000 0.000000 0.000000 0.000000 0.000000 0.000000 
4.982363 17.300687 0.915797 -176.756311 -62.043975 -173.220602 4.075859 1.252379 -8.883605 0.136888 0.629572 -5.781763 -4.922279 0.636103 -6.521788 6.292726 2.909608 7.368140 -1.841999 -0.355197 4.185344 0.000000 0.000000 0.000000 10.993789 6.905194 -6.725859 -28.434797 -69.233127 -44.056484 175.349507 -62.868050 179.537808 25.450078 -21.307839 -5.268202 -0.277199 1.418395 -0.000000 0.000000 0.000000 0.000000 0.000000 0.000000 0.000000 0.322025 1.310127 -8.461925 80.579439 64.537428 4.150444 -175.144312 59.117452 179.673728 -12.316697 25.251406 -2.906032 -0.153123 -1.352376 0.000000 0.000000 0.000000 0.000000 0.000000 0.000000 0.000000 
4.983381 17.300232 0.917998 -176.816076 -61.328874 -172.917672 4.067335 1.160764 -8.885742 0.158095 0.533959 -5.825082 -4.884407 0.532472 -6.701966 6.391507 2.957709 7.321678 -1.806225 -0.353134 4.178408 0.000000 0.000000 0.000000 11.318783 6.560705 -6.792385 -26.083084 -68.573594 -46.731199 175.516246 -64.404804 179.533573 26.017382 -22.186276 -5.603378 -0.278964 1.420239 -0.000000 0.000000 0.000000 0.000000 0.000000 0.000000 0.000000 0.383780 1.558233 -8.380736 80.972425 64.612090 4.485753 -175.167329 59.317876 179.673441 -12.318032 25.212967 -2.901529 -0.154299 -1.351158 0.000000 0.000000 0.000000 0.000000 0.000000 0.000000 0.000000 
4.986117 17.299689 0.920097 -176.871279 -60.624047 -172.610892 4.036288 1.037499 -8.883960 0.178309 0.407572 -5.868900 -4.846981 0.397377 -6.887807 6.515481 3.004055 7.266919 -1.768532 -0.350812 4.169644 0.000000 0.000000 0.000000 11.712585 6.146409 -6.849844 -23.675785 -67.786670 -49.617051 175.729966 -66.233650 179.530025 26.612570 -23.094457 -5.962159 -0.279753 1.419570 -0.000000 0.000000 0.000000 0.000000 0.000000 0.000000 0.000000 0.471459 1.826756 -8.292993 81.379640 64.691979 4.838725 -175.194882 59.532458 179.673198 -12.316424 25.177748 -2.896725 -0.155533 -1.349922 0.000000 0.000000 0.000000 0.000000 0.000000 0.000000 0.000000 
4.990475 17.299214 0.922257 -176.912749 -59.934748 -172.315046 3.987914 0.881561 -8.873092 0.198503 0.249055 -5.910334 -4.810899 0.229875 -7.072021 6.664788 3.048861 7.201787 -1.730065 -0.348224 4.158300 0.000000 0.000000 0.000000 12.164489 5.668046 -6.888847 -21.259389 -66.876657 -52.678539 175.996549 -68.412614 179.527120 27.246024 -23.936050 -6.323149 -0.280247 1.414609 -0.000000 0.000000 0.000000 0.000000 0.000000 0.000000 0.000000 0.588496 2.113911 -8.203868 81.807156 64.779639 5.219481 -175.226759 59.759441 179.672942 -12.316823 25.148518 -2.893122 -0.156697 -1.348696 0.000000 0.000000 0.000000 0.000000 0.000000 0.000000 0.000000 
4.996440 17.299026 0.924592 -176.937480 -59.267831 -172.038913 3.926574 0.692723 -8.851438 0.219386 0.057921 -5.946931 -4.777054 0.029833 -7.246573 6.838557 3.093050 7.124255 -1.692316 -0.345382 4.143633 0.000000 0.000000 0.000000 12.663434 5.130323 -6.897695 -18.886471 -65.843713 -55.856697 176.322137 -71.003309 179.524614 27.930042 -24.616727 -6.663747 -0.281348 1.404296 -0.000000 0.000000 0.000000 0.000000 0.000000 0.000000 0.000000 0.738295 2.417401 -8.118873 82.260551 64.875587 5.637253 -175.263593 60.002862 179.672652 -12.322040 25.126732 -2.891520 -0.157711 -1.347432 0.000000 0.000000 0.000000 0.000000 0.000000 0.000000 0.000000 
5.003940 17.299263 0.927156 -176.945270 -58.632646 -171.787230 3.855808 0.471245 -8.820710 0.241473 -0.165764 -5.976883 -4.746271 -0.202431 -7.403439 7.035445 3.138675 7.033315 -1.656801 -0.342324 4.125192 0.000000 0.000000 0.000000 13.201419 4.536357 -6.863075 -16.617925 -64.682943 -59.067822 176.712033 -74.062157 179.522079 28.679960 -25.044743 -6.960550 -0.284267 1.388325 -0.000000 0.000000 0.000000 0.000000 0.000000 0.000000 0.000000 0.923044 2.733819 -8.044373 82.746176 64.978393 6.100619 -175.305746 60.263812 179.672362 -12.330889 25.111638 -2.891519 -0.158576 -1.346081 0.000000 0.000000 0.000000 0.000000 0.000000 0.000000 0.000000 
5.013053 17.300149 0.930454 -176.929289 -58.038016 -171.582829 3.785796 0.218905 -8.767302 0.266152 -0.420264 -5.995669 -4.720083 -0.464564 -7.534698 7.250747 3.184915 6.926519 -1.625672 -0.339101 4.102038 0.000000 0.000000 0.000000 13.742632 3.896075 -6.771230 -14.438924 -63.414068 -62.257704 177.176436 -77.655247 179.519548 29.465714 -25.179061 -7.189757 -0.289411 1.367700 -0.000000 0.000000 0.000000 0.000000 0.000000 0.000000 0.000000 1.145605 3.056657 -7.986159 83.267973 65.093507 6.621168 -175.353509 60.547091 179.672055 -12.349398 25.100516 -2.894421 -0.159124 -1.344468 0.000000 0.000000 0.000000 0.000000 0.000000 0.000000 0.000000 
5.023653 17.301755 0.934604 -176.891169 -57.496481 -171.428274 3.719542 -0.062789 -8.692536 0.293662 -0.703921 -6.001813 -4.699268 -0.754755 -7.633199 7.481350 3.233050 6.802778 -1.600357 -0.335765 4.073720 0.000000 0.000000 0.000000 14.275545 3.212566 -6.607199 -12.374863 -62.035826 -65.332762 177.719753 -81.824618 179.516872 30.271077 -24.991514 -7.333163 -0.297735 1.343866 -0.000000 0.000000 0.000000 0.000000 0.000000 0.000000 0.000000 1.405985 3.379912 -7.949883 83.827662 65.218551 7.202504 -175.407256 60.854784 179.671827 -12.372486 25.088593 -2.898226 -0.159429 -1.342468 0.000000 0.000000 0.000000 0.000000 0.000000 0.000000 0.000000 
5.035773 17.304178 0.939838 -176.832876 -57.020924 -171.330050 3.660590 -0.371734 -8.593510 0.324246 -1.014245 -5.993283 -4.684554 -1.070328 -7.692311 7.723511 3.282332 6.659767 -1.582030 -0.332345 4.039430 0.000000 0.000000 0.000000 14.779216 2.492092 -6.355999 -10.406024 -60.558759 -68.218656 178.344710 -86.604442 179.514328 31.051090 -24.514110 -7.382361 -0.309659 1.318996 -0.000000 0.000000 0.000000 0.000000 0.000000 0.000000 0.000000 1.703384 3.695976 -7.940358 84.423438 65.353244 7.846060 -175.467247 61.190420 179.671763 -12.397407 25.071026 -2.901833 -0.159513 -1.339922 0.000000 0.000000 0.000000 0.000000 0.000000 0.000000 0.000000 
